<svg width="88" height="88" viewBox="0 0 88 88" fill="none" xmlns="http://www.w3.org/2000/svg">
<path fill-rule="evenodd" clip-rule="evenodd" d="M44.001 0C19.7045 0 0 19.6324 0 43.8407C0 68.0496 19.7045 87.682 44.001 87.682C68.2968 87.682 88 68.0496 88 43.8407C88 19.6324 68.2968 0 44.001 0ZM36.1699 62.5596V57.3242H35.5615L34.4068 58.2222V58.9256L35.5507 57.9885V62.5596H36.1699ZM40.4627 60.8888C40.9767 60.8888 41.3473 60.8019 41.5683 60.626C41.7906 60.4509 41.924 60.3047 41.9684 60.1874C41.9853 60.2231 41.994 60.2966 41.994 60.4077C41.994 60.7971 41.8964 61.1764 41.7023 61.5463C41.5096 61.9148 41.1661 62.1041 40.6736 62.1136C40.4142 62.1136 40.2033 62.0772 40.0437 62.0024C39.8827 61.929 39.7674 61.8421 39.6967 61.7417C39.6273 61.6426 39.5808 61.5436 39.5613 61.4439C39.5391 61.3469 39.5276 61.2883 39.5256 61.2721H38.895C38.895 61.5416 39.0089 61.8272 39.2393 62.1297C39.4697 62.4316 39.95 62.5838 40.685 62.5838C41.3918 62.5676 41.8943 62.3184 42.1921 61.8353C42.4899 61.3523 42.6455 60.7486 42.6597 60.0237C42.6597 59.4767 42.6071 59.0051 42.5027 58.6056C42.3989 58.2088 42.2002 57.8888 41.9085 57.6503C41.6154 57.4104 41.2051 57.2892 40.6736 57.2892C40.33 57.2892 40.0228 57.3478 39.7486 57.4623C39.473 57.5775 39.2494 57.7641 39.0803 58.0235C38.9105 58.2849 38.8216 58.6197 38.8121 59.0307C38.8121 59.4181 38.8741 59.7516 38.9954 60.0264C39.1193 60.3026 39.3066 60.5142 39.5525 60.6624C39.8011 60.8113 40.1043 60.8861 40.4627 60.8888ZM41.8512 59.0752C41.8512 58.2047 41.451 57.7688 40.6507 57.7688C39.8631 57.7688 39.4697 58.2047 39.4697 59.0752C39.4697 59.5036 39.5707 59.8351 39.7728 60.0695C39.9749 60.3027 40.268 60.4192 40.6507 60.4192C41.0394 60.4192 41.3379 60.3027 41.5433 60.0716C41.7488 59.8391 41.8512 59.5083 41.8512 59.0752ZM47.8054 59.918C47.8054 59.4376 47.7475 59.0051 47.6316 58.615C47.515 58.2283 47.3042 57.9123 47.0044 57.6671C46.7019 57.4232 46.2909 57.3006 45.7729 57.3006C45.2554 57.3006 44.8465 57.4253 44.542 57.6725C44.2402 57.9225 44.03 58.2418 43.9087 58.6312C43.7901 59.0219 43.7295 59.4592 43.7295 59.9402C43.7295 61.7033 44.4106 62.5838 45.7729 62.5838C46.2815 62.5838 46.6877 62.4592 46.9936 62.2072C47.2988 61.9573 47.5083 61.6352 47.6269 61.2418C47.7468 60.8463 47.8054 60.4057 47.8054 59.918ZM45.7715 57.8268C45.2581 57.8268 44.9119 58.0235 44.7347 58.419C44.5555 58.8138 44.4659 59.313 44.4659 59.918C44.4659 60.5344 44.5575 61.0444 44.7394 61.45C44.9199 61.8549 45.2649 62.0576 45.7715 62.0576C46.644 62.0576 47.0792 61.3449 47.0792 59.918C47.0792 59.317 46.9882 58.8178 46.8063 58.4217C46.6264 58.0255 46.2815 57.8268 45.7715 57.8268ZM51.0742 58.9957C50.5562 58.9957 50.189 59.0826 49.9673 59.2577C49.745 59.4329 49.6109 59.5798 49.5645 59.697C49.5645 59.2072 49.6561 58.7666 49.8366 58.3745C50.0179 57.9811 50.3594 57.7803 50.86 57.7702C51.1288 57.7702 51.3437 57.8072 51.5054 57.8814C51.6657 57.9555 51.7816 58.0451 51.8537 58.1495C51.9265 58.2539 51.9716 58.3543 51.9885 58.45C52.0066 58.5436 52.0161 58.5982 52.0174 58.6116H52.6467C52.6467 58.4789 52.6116 58.3159 52.5402 58.1212C52.4681 57.9265 52.2963 57.7412 52.0302 57.5661C51.7628 57.3889 51.3686 57.3006 50.8499 57.3006C50.3668 57.3121 49.9788 57.4387 49.6877 57.6792C49.3987 57.9198 49.1919 58.2297 49.0693 58.6076C48.9473 58.9862 48.882 59.4046 48.8726 59.8607C48.8726 60.3862 48.9197 60.8463 49.0147 61.2378C49.1077 61.6305 49.3004 61.9559 49.5948 62.2113C49.8865 62.4666 50.3102 62.5959 50.86 62.5959C51.2043 62.5959 51.5121 62.536 51.7884 62.4215C52.0626 62.3069 52.2842 62.1196 52.454 61.8629C52.6238 61.6056 52.7107 61.2681 52.7194 60.8537C52.7194 60.2562 52.5766 59.798 52.295 59.4807C52.01 59.1627 51.6038 59.001 51.0742 58.9957ZM49.6918 60.8093C49.6918 61.6797 50.0926 62.1163 50.8964 62.1163C51.6758 62.1163 52.0653 61.6797 52.0653 60.8093C52.0653 60.3788 51.9655 60.0473 51.7668 59.8135C51.5674 59.5818 51.2777 59.4646 50.8964 59.4646C50.0926 59.4646 49.6918 59.9132 49.6918 60.8093ZM68.152 44.7394C67.2229 45.1503 66.275 45.5263 65.3103 45.8672L64.1023 49.2903C64.0714 49.3779 63.9528 49.4513 63.8389 49.4526L63.6321 49.456C63.4057 49.46 63.269 49.3199 63.3316 49.1454L64.3759 46.1838C63.5384 46.4553 62.6896 46.7005 61.8272 46.9182L59.5117 53.4612H63.4744C63.8692 53.4612 64.6689 53.2234 65.127 52.6473C66.8706 50.4551 67.8569 47.6774 68.152 44.7394ZM58.7376 53.4612L60.9811 47.1223C60.1773 47.3062 59.3655 47.4652 58.5449 47.6006L57.816 49.6433L57.4434 47.7657C56.7428 47.8607 56.0367 47.9375 55.324 47.9961C54.8342 49.8851 54.1868 51.7116 53.3965 53.4612H55.7376L56.3446 51.787L56.6673 53.4612H58.7376ZM51.1362 22.8635L31.2815 31.9296C32.4941 34.14 33.1847 36.6751 33.1847 39.3713C33.1847 41.9038 33.0951 44.6545 31.4964 46.4068L31.175 46.7592C29.9576 48.2366 28.113 49.1784 26.0495 49.1784C24.7378 49.1784 23.5136 48.7985 22.4836 48.1403L22.4721 48.1436L20.7198 48.1497C20.7467 50.3123 24.2507 53.4612 25.8831 53.4612H52.3664C54.3073 49.165 55.3893 44.4025 55.3893 39.3882C55.3893 33.3989 53.8472 27.7674 51.1362 22.8635ZM46.0538 42.12H42.1759V43.074L43.8784 43.0753L46.0538 43.0733V42.12ZM44.1108 32.5433C43.8137 32.5433 43.5193 32.5581 43.2303 32.5871V35.6794H39.946C40.6103 35.1896 41.3628 34.813 42.1759 34.5799V34.5685C42.2891 34.5361 42.403 34.5058 42.5182 34.4789V32.6909C42.403 32.7124 42.2891 32.736 42.1759 32.7616V32.7582C39.6745 33.3214 37.5759 34.9525 36.3861 37.1481H43.2303V40.6466H42.1759V38.1809H35.9112C35.7299 38.6525 35.5885 39.1429 35.4901 39.6496H40.7066V40.6466H35.3567C35.3399 40.8703 35.3311 41.0967 35.3311 41.3251C35.3311 44.9617 37.5422 48.0816 40.6938 49.4156L40.6958 49.4169C40.9572 49.5261 41.2253 49.6251 41.4995 49.71L41.5096 49.7134C41.5716 49.7329 41.6356 49.7524 41.7003 49.7699L41.7205 49.7753C41.7812 49.7935 41.8438 49.8104 41.9044 49.8259L41.928 49.8319C42.0102 49.8528 42.0917 49.873 42.1759 49.8919V49.8905C42.2891 49.9161 42.403 49.939 42.5182 49.9606V48.1726C42.403 48.1456 42.2891 48.116 42.1759 48.0843V48.0729C39.4885 47.3015 37.4614 44.9691 37.14 42.12H40.7066V43.072L38.4402 43.07C38.606 43.5705 38.829 44.0576 39.1928 44.5811H43.2303V45.3983H39.8766C40.7612 46.2855 41.928 46.8926 43.2303 47.0751V50.0623C43.5193 50.092 43.8137 50.1068 44.1108 50.1068C44.4106 50.1068 44.7064 50.092 44.9981 50.0623V47.059C46.2579 46.8589 47.3837 46.2613 48.2453 45.3983H44.9981V44.5811H49.0349C49.3994 44.0576 49.6224 43.5698 49.7868 43.07L47.5218 43.072V42.1207H51.087C50.7664 44.9691 48.7385 47.3015 46.0538 48.0729V48.083C45.9399 48.1153 45.8261 48.145 45.7102 48.1712V49.9599C45.8254 49.939 45.9399 49.9155 46.0538 49.8899L46.0753 49.8858C46.103 49.8791 46.1299 49.8723 46.1555 49.8663C46.1919 49.8575 46.2303 49.8481 46.266 49.8393C46.2997 49.8306 46.3327 49.8218 46.365 49.8137C46.398 49.805 46.4297 49.7962 46.4614 49.7875C46.4964 49.778 46.5301 49.7679 46.5651 49.7578L46.646 49.7336C46.6837 49.7228 46.7214 49.7113 46.7592 49.6999C46.7827 49.6918 46.8077 49.683 46.8326 49.6756C46.9848 49.6258 47.1351 49.5726 47.284 49.5146L47.3008 49.5079C47.3439 49.491 47.3871 49.4742 47.4288 49.456L47.4847 49.4338C47.5279 49.4156 47.5716 49.3967 47.6161 49.3778L47.6586 49.3597C47.7017 49.3401 47.7441 49.3206 47.7859 49.3017L47.8364 49.2781C47.8809 49.2573 47.924 49.237 47.9678 49.2155L47.9961 49.2C48.0426 49.1778 48.0884 49.1549 48.1349 49.1313L48.1591 49.1185C48.3033 49.043 48.4441 48.9649 48.5829 48.8827L48.6273 48.8564C48.6617 48.8355 48.6961 48.814 48.7304 48.7924L48.8012 48.7493C48.8335 48.7291 48.8652 48.7075 48.8975 48.6873L48.9554 48.6482C48.9918 48.6253 49.0268 48.6004 49.0625 48.5768L49.1131 48.5418C49.1495 48.5162 49.1852 48.4919 49.2209 48.4657L49.262 48.4367C49.3886 48.3444 49.5139 48.2487 49.6345 48.1497L49.6648 48.1261C49.6992 48.0971 49.7349 48.0682 49.7699 48.0392L49.8171 47.9995C49.8467 47.9732 49.8757 47.9469 49.906 47.9206L49.966 47.8681C49.9963 47.8418 50.026 47.8142 50.0556 47.7866L50.1021 47.7441C50.1331 47.7138 50.1647 47.6842 50.1971 47.6532L50.2267 47.6242C50.3399 47.5157 50.449 47.4032 50.5555 47.288L50.5878 47.253C50.6134 47.2254 50.639 47.1971 50.6646 47.1681C50.6848 47.1452 50.705 47.1223 50.7259 47.0987L50.7866 47.028C50.8095 47.001 50.8317 46.9747 50.8533 46.9485L50.9105 46.8798C50.9361 46.8481 50.9637 46.8158 50.988 46.7834L51.0338 46.7248C51.0608 46.6925 51.0857 46.6581 51.112 46.6251C51.1254 46.6062 51.1409 46.5867 51.1544 46.5678C51.1894 46.522 51.2238 46.4749 51.2575 46.429L51.2925 46.3772C51.3228 46.3347 51.3531 46.2916 51.3814 46.2478C51.3969 46.2276 51.4097 46.2067 51.4232 46.1865C51.4468 46.1501 51.4704 46.1144 51.4946 46.0787L51.5317 46.0215C51.5546 45.9837 51.5775 45.9453 51.6011 45.9083L51.6395 45.8456C51.6624 45.8059 51.6873 45.7648 51.7109 45.725L51.7358 45.6812C51.7628 45.6347 51.7884 45.5883 51.8133 45.5424L51.8375 45.4993C51.9015 45.3808 51.9635 45.2608 52.0215 45.1389L52.0376 45.1059C52.0626 45.054 52.0875 45.0008 52.1111 44.9496L52.1272 44.9139C52.1488 44.8661 52.169 44.8169 52.1892 44.769L52.2128 44.7131C52.2337 44.6646 52.2539 44.6161 52.2734 44.5662L52.2882 44.5305C52.3112 44.4719 52.3327 44.414 52.3536 44.3561L52.3597 44.3406C52.456 44.0758 52.5402 43.8056 52.6123 43.5287L52.6184 43.5065C52.6339 43.4445 52.6487 43.3832 52.6622 43.3212L52.6682 43.2983C52.6844 43.233 52.6972 43.1676 52.7107 43.1016L52.7134 43.0929C52.7713 42.8086 52.8151 42.5182 52.8461 42.2238C52.8757 41.9273 52.8912 41.6282 52.8912 41.3251C52.8912 41.0967 52.8831 40.8703 52.8663 40.6466H47.5218V39.6496H52.7309C52.6339 39.1436 52.4924 38.6525 52.3118 38.1809H46.0538V40.6466H44.9981V37.1481H51.8362C50.6478 34.9545 48.5532 33.3235 46.0538 32.7589V32.7623C45.9386 32.7367 45.8254 32.7131 45.7102 32.6915V34.4795C45.8254 34.5065 45.9399 34.5361 46.0538 34.5698V34.5799C46.8663 34.813 47.6181 35.1896 48.2811 35.6794H44.9981V32.5878C44.7064 32.5581 44.4106 32.5433 44.1108 32.5433ZM9.40694 42.4879C10.1393 42.4879 10.7328 43.0821 10.7328 43.8137C10.7328 44.5467 10.1393 45.1402 9.40694 45.1402C8.67395 45.1402 8.08042 44.5467 8.08042 43.8137C8.08042 43.0821 8.67395 42.4879 9.40694 42.4879ZM78.816 42.4879C79.5477 42.4879 80.1426 43.0821 80.1426 43.8137C80.1426 44.5467 79.5477 45.1402 78.816 45.1402C78.0837 45.1402 77.4895 44.5467 77.4895 43.8137C77.4895 43.0821 78.0837 42.4879 78.816 42.4879ZM12.5484 52.8777L12.6919 52.8299L13.4215 55.0747L13.2774 55.1219L13.2167 54.9325C13.1467 54.7183 13.0335 54.5836 12.8758 54.527C12.7721 54.4913 12.5646 54.5243 12.2506 54.626L9.68787 55.4587C9.29376 55.5867 8.96162 55.6487 8.68877 55.6406C8.41592 55.6345 8.15452 55.5544 7.90525 55.4021C7.65463 55.2505 7.48082 55.0248 7.38313 54.7271C7.30498 54.4839 7.30363 54.2737 7.37707 54.0958C7.45118 53.9179 7.56638 53.8041 7.71998 53.7536C7.84731 53.7125 7.95241 53.7138 8.03797 53.7569C8.14644 53.8162 8.21785 53.9025 8.2549 54.0156C8.28185 54.0972 8.27983 54.1814 8.24615 54.2636C8.21381 54.3471 8.09591 54.4778 7.8938 54.6543C7.77523 54.7574 7.72874 54.8571 7.75973 54.9494C7.78196 55.0195 7.84529 55.0713 7.95106 55.103C8.05481 55.1367 8.2165 55.1185 8.43209 55.0471L12.0095 53.8849C12.2756 53.7987 12.4453 53.7246 12.5181 53.6646C12.5747 53.6168 12.6118 53.5447 12.632 53.4477C12.6582 53.317 12.6502 53.1903 12.6097 53.0664L12.5484 52.8777ZM9.94523 60.6045L9.80914 60.6658L8.84979 58.5086L8.98588 58.4473L9.0647 58.6265C9.15767 58.8346 9.285 58.9579 9.44871 58.997C9.55381 59.0219 9.75794 58.9674 10.0591 58.8333L13.3104 57.3855C13.5657 57.2717 13.7261 57.1807 13.7934 57.1127C13.844 57.0594 13.8756 56.9853 13.8851 56.8897C13.8972 56.7542 13.8756 56.6276 13.8217 56.5077L13.7436 56.3298L13.8803 56.2678L14.8417 58.425L14.7029 58.487L14.6221 58.3038C14.5305 58.099 14.4038 57.9763 14.2414 57.9366C14.1337 57.9103 13.9302 57.9635 13.6284 58.0969L10.3764 59.5447C10.1224 59.6586 9.9614 59.7495 9.89336 59.8176C9.8435 59.8701 9.81318 59.9456 9.80443 60.0439C9.79163 60.1773 9.81049 60.304 9.86506 60.4219L9.94523 60.6045ZM15.3106 59.3008L15.1826 59.381C15.2662 59.5164 15.3187 59.6236 15.3416 59.7037C15.3827 59.8661 15.3995 59.9981 15.3921 60.0999C15.3854 60.2009 15.345 60.37 15.2715 60.6038L12.0223 62.6343C11.7609 62.7967 11.5783 62.8775 11.4732 62.8728C11.3007 62.8641 11.1539 62.7597 11.0285 62.5596L10.9275 62.3992L10.8008 62.4787L11.8161 64.1037L11.9428 64.0235L11.8397 63.8598C11.7265 63.6786 11.6915 63.5129 11.7332 63.3653C11.7656 63.2589 11.9259 63.1167 12.2116 62.9375L15.089 61.1387L13.2518 66.5688L13.3306 66.6934L17.2671 64.2337C17.5285 64.07 17.711 63.9905 17.8161 63.9952C17.9866 64.0026 18.1348 64.1057 18.2574 64.3024L18.3605 64.4682L18.4898 64.3887L17.4732 62.7623L17.3459 62.8432L17.4463 63.0049C17.5615 63.1881 17.5972 63.3525 17.5541 63.498C17.5231 63.6065 17.3634 63.7513 17.0764 63.9305L14.3836 65.6135L16.1022 60.5681L15.3106 59.3008ZM18.9695 70.0357L18.6596 70.8367C18.5572 71.0961 18.4676 71.2706 18.3854 71.3555C18.3228 71.4208 18.2426 71.4477 18.1435 71.4383C18.0445 71.4296 17.9111 71.3534 17.7467 71.2093L17.6423 71.317L19.2067 72.8268L19.3091 72.719C19.1581 72.554 19.0746 72.3855 19.0598 72.2205C19.0456 72.0521 19.1103 71.7833 19.2558 71.4127L21.058 66.785L20.9569 66.6867L16.4135 68.6013C16.0173 68.7704 15.7229 68.8547 15.5343 68.852C15.4406 68.8506 15.2965 68.7859 15.1018 68.6559L14.9987 68.763L16.245 69.9676L16.3508 69.8605C16.1723 69.6618 16.0773 69.5115 16.0638 69.4111C16.0517 69.3094 16.0726 69.2292 16.1312 69.1686C16.2053 69.0925 16.3495 69.0096 16.5644 68.9207L17.4355 68.5549L18.9695 70.0357ZM19.0975 69.7399L19.9706 67.4904L17.736 68.4255L19.0975 69.7399ZM23.4449 69.3633L23.3627 69.4893C23.4968 69.5762 23.5898 69.6516 23.643 69.715C23.7494 69.8443 23.8202 69.9568 23.8572 70.0518C23.8929 70.1468 23.928 70.3166 23.9596 70.5598L21.8732 73.7727C21.7068 74.0301 21.5734 74.1823 21.4777 74.2221C21.318 74.2861 21.1388 74.2551 20.9421 74.1257L20.7831 74.0233L20.7009 74.148L22.3077 75.1922L22.3899 75.0662L22.2262 74.9611C22.0483 74.8446 21.9446 74.7105 21.921 74.5582C21.9048 74.4478 21.9897 74.2524 22.1736 73.9681L24.0216 71.123L24.6515 76.8192L24.7741 76.9L27.3032 73.0067C27.4717 72.7467 27.603 72.5991 27.7007 72.558C27.8577 72.4933 28.0349 72.5237 28.2303 72.6503L28.3933 72.7574L28.4768 72.6301L26.8687 71.5865L26.7865 71.7125L26.9468 71.8163C27.1287 71.9342 27.2285 72.0689 27.2527 72.2191C27.2695 72.3283 27.1867 72.5277 27.0034 72.812L25.272 75.4758L24.698 70.1765L23.4449 69.3633ZM34.0302 75.0945L34.08 74.9497L35.9246 75.5856L35.8748 75.7285L35.6787 75.6611C35.4746 75.5897 35.2866 75.6227 35.1175 75.7554C35.0374 75.8167 34.9464 75.9912 34.846 76.2816L34.1198 78.3916C33.9386 78.9158 33.7492 79.3031 33.5471 79.5544C33.343 79.8078 33.0533 79.9849 32.6794 80.086C32.3048 80.187 31.8561 80.1486 31.334 79.9688C30.7654 79.7727 30.3679 79.5268 30.1429 79.2263C29.9152 78.9286 29.798 78.5917 29.7899 78.2165C29.7858 77.9604 29.8923 77.5185 30.1079 76.8913L30.8092 74.8553C30.919 74.5347 30.9493 74.311 30.8927 74.181C30.8395 74.0496 30.7149 73.9519 30.5182 73.8832L30.3208 73.8165L30.3706 73.673L32.6215 74.4484L32.5723 74.5906L32.3722 74.5232C32.1566 74.4484 31.9808 74.4626 31.8406 74.5663C31.745 74.6371 31.6473 74.8176 31.5476 75.1093L30.7654 77.3797C30.6967 77.5825 30.634 77.8196 30.5815 78.0938C30.5296 78.3667 30.5262 78.5951 30.5727 78.7736C30.6199 78.9535 30.7189 79.1206 30.8692 79.2796C31.0201 79.4386 31.2282 79.5632 31.4944 79.6542C31.8352 79.772 32.1647 79.801 32.484 79.7458C32.8047 79.6905 33.054 79.5645 33.2325 79.3665C33.411 79.1684 33.5963 78.7932 33.7863 78.2394L34.5126 76.1307C34.6244 75.8053 34.6574 75.5897 34.6156 75.4832C34.5536 75.3357 34.4243 75.2286 34.2276 75.1605L34.0302 75.0945ZM36.5249 75.7264L38.0057 75.9339L40.7659 80.4936L41.2072 77.3487C41.2543 77.0139 41.2456 76.7983 41.1829 76.7053C41.098 76.578 40.9498 76.5012 40.7356 76.4709L40.5469 76.4439L40.5685 76.2951L42.4663 76.5612L42.4447 76.7107L42.2507 76.6838C42.021 76.6514 41.8465 76.6993 41.732 76.8226C41.6606 76.9007 41.6046 77.0927 41.5615 77.3986L40.9148 81.9953L40.7692 81.9757L37.7908 77.0772L37.3199 80.4377C37.272 80.7718 37.2788 80.9861 37.3387 81.0797C37.4256 81.207 37.5759 81.2852 37.7874 81.3155L37.9788 81.3411L37.9585 81.4893L36.0614 81.2232L36.0816 81.075L36.2696 81.1013C36.5033 81.1349 36.6772 81.0871 36.7951 80.9611C36.8658 80.8843 36.9224 80.6923 36.9648 80.3871L37.4984 76.5935C37.367 76.386 37.2633 76.2472 37.1912 76.1765C37.1164 76.1064 37.0046 76.035 36.8537 75.9609C36.7789 75.9272 36.6623 75.8976 36.5047 75.876L36.5249 75.7264ZM46.01 81.7884L46.0154 81.9387L43.6561 82.0209L43.65 81.8713L43.8454 81.8639C44.0731 81.8572 44.2361 81.7844 44.3331 81.6476C44.3958 81.5594 44.4221 81.3485 44.4099 81.0197L44.286 77.4626C44.2766 77.1837 44.2516 77.0011 44.2139 76.9135C44.1836 76.8461 44.127 76.7889 44.0408 76.7431C43.9195 76.6831 43.7949 76.6562 43.6642 76.6609L43.4688 76.6663L43.4634 76.5147L45.8234 76.4345L45.8281 76.5847L45.6287 76.5915C45.405 76.5989 45.2426 76.6723 45.1443 76.8071C45.0803 76.8953 45.0533 77.1055 45.0655 77.4343L45.1887 80.9915C45.1982 81.2704 45.2231 81.4543 45.2608 81.5425C45.2912 81.6086 45.3498 81.6652 45.4367 81.7103C45.5566 81.7709 45.6799 81.8006 45.8106 81.7965L46.01 81.7884ZM52.7369 75.494L52.7625 75.6436C52.5766 75.7116 52.4419 75.7985 52.3583 75.9036C52.2411 76.0586 52.1508 76.2829 52.0888 76.5713L51.0102 81.5196L50.8634 81.5466L48.0062 77.2281C47.8593 77.0072 47.7616 76.8724 47.7071 76.828C47.6282 76.7559 47.5346 76.7053 47.4281 76.677C47.3224 76.6474 47.1856 76.6413 47.0185 76.6568L46.9936 76.5073L49.2087 76.1159L49.235 76.2654C48.9878 76.3335 48.8335 76.4055 48.7688 76.479C48.7055 76.5524 48.6806 76.64 48.6981 76.735C48.7217 76.869 48.8193 77.0658 48.9925 77.3258L50.9334 80.2625L51.659 76.898C51.7304 76.5659 51.7547 76.3409 51.7345 76.2203C51.7203 76.1414 51.6698 76.0748 51.5802 76.0182C51.4899 75.9622 51.3511 75.9346 51.1611 75.9387H51.0897L51.0641 75.7891L52.7369 75.494ZM55.1198 74.9679L55.9357 76.9856L57.0574 76.5322C57.3484 76.415 57.527 76.2924 57.589 76.1664C57.6725 75.9979 57.6631 75.7655 57.5593 75.4677L57.6994 75.4105L58.4169 77.1884L58.2795 77.245C58.1441 77.0099 58.0437 76.8657 57.9804 76.8098C57.8995 76.7397 57.7978 76.7013 57.6738 76.6925C57.5506 76.6831 57.3821 76.7215 57.1692 76.8071L56.0462 77.2611L56.7273 78.9447C56.8182 79.1718 56.8843 79.3038 56.924 79.3463C56.9624 79.3867 57.0143 79.4103 57.0756 79.4197C57.1369 79.4285 57.2393 79.4035 57.3801 79.3469L58.2458 78.9966C58.5342 78.8814 58.7376 78.7756 58.8508 78.6827C58.9653 78.5897 59.059 78.4617 59.1311 78.2933C59.2247 78.0757 59.2894 77.7752 59.3244 77.3959L59.4753 77.3359L59.5535 78.7932L55.6177 80.3838L55.5611 80.245L55.7417 80.1722C55.8616 80.1237 55.9647 80.0469 56.0489 79.9459C56.1135 79.8745 56.1432 79.7909 56.1412 79.6993C56.1358 79.607 56.0839 79.4379 55.9842 79.1886L54.6428 75.8706C54.5115 75.5466 54.3996 75.3606 54.304 75.3114C54.1733 75.2474 54.0028 75.2575 53.792 75.3438L53.6101 75.4172L53.5535 75.2757L57.4899 73.6865L57.9972 74.7812L57.8497 74.8412C57.6887 74.5939 57.5566 74.4329 57.4522 74.3595C57.3464 74.2854 57.2225 74.2456 57.0756 74.2436C56.9604 74.247 56.7745 74.2995 56.5211 74.4019L55.1198 74.9679ZM66.4138 74.8068L66.3323 74.6815C66.0615 74.8169 65.8156 74.8857 65.5946 74.889C65.3743 74.8911 65.0543 74.8095 64.6393 74.6465L62.825 73.9411C63.1571 73.6023 63.3478 73.2688 63.397 72.9414C63.4468 72.6106 63.3781 72.3047 63.1935 72.0204C63.0217 71.7543 62.7927 71.5791 62.5057 71.4909C62.218 71.4053 61.935 71.4019 61.6561 71.4821C61.3759 71.5609 60.9918 71.7597 60.5014 72.079L58.8178 73.1711L58.9013 73.2977L59.0745 73.1859C59.2496 73.0734 59.4127 73.037 59.567 73.0788C59.6748 73.1084 59.825 73.2667 60.013 73.5571L61.9519 76.543C62.1223 76.805 62.2065 76.9876 62.2052 77.0907C62.2045 77.2719 62.1061 77.4255 61.9094 77.5529L61.7363 77.6647L61.8178 77.7907L63.7978 76.5066L63.7163 76.3806L63.5351 76.4978C63.3626 76.6097 63.2009 76.6427 63.0493 76.5996C62.9402 76.5699 62.79 76.4109 62.6007 76.1199L61.7309 74.7785C61.77 74.7563 61.805 74.7354 61.8387 74.7139C61.8737 74.693 61.9061 74.6721 61.935 74.6532C62.0085 74.6054 62.1008 74.5427 62.2139 74.4632L65.1803 75.6085L66.4138 74.8068ZM61.5894 74.5636L60.3431 72.6429C60.5411 72.4522 60.7048 72.3148 60.8355 72.2299C61.134 72.0372 61.4304 71.9719 61.7282 72.0352C62.0267 72.0985 62.2699 72.2744 62.4572 72.5621C62.6478 72.8578 62.6943 73.1731 62.5946 73.51C62.4942 73.8455 62.2247 74.1567 61.7834 74.4437C61.7632 74.4552 61.7363 74.4727 61.7039 74.4909C61.6716 74.5097 61.6346 74.5333 61.5894 74.5636ZM66.8052 67.1367L66.6948 67.2378C66.7581 67.3496 66.7884 67.4379 66.7837 67.4992C66.7783 67.5591 66.75 67.613 66.6968 67.6602C66.651 67.7026 66.5492 67.7484 66.3909 67.8003C66.0514 67.9121 65.7738 68.0671 65.5555 68.2631C65.2086 68.5764 65.0166 68.9409 64.9829 69.3559C64.9478 69.7709 65.0617 70.1246 65.3278 70.419C65.4794 70.5874 65.6579 70.708 65.8607 70.7815C66.0642 70.8522 66.2912 70.8805 66.5459 70.8636C66.7978 70.8468 67.1879 70.7801 67.7147 70.6602C68.2416 70.5416 68.5717 70.4763 68.7044 70.4675C68.9005 70.4493 69.0723 70.4675 69.2211 70.5194C69.368 70.5746 69.4879 70.6501 69.5782 70.7511C69.7419 70.9324 69.8093 71.156 69.7837 71.4188C69.7561 71.6829 69.6173 71.9288 69.3667 72.1545C69.1477 72.3505 68.9052 72.4826 68.6377 72.5499C68.3682 72.6173 68.1244 72.6173 67.9041 72.5506C67.6844 72.4853 67.4156 72.3283 67.0976 72.0824L66.9871 72.1841L68.251 73.5868L68.3615 73.4864C68.2908 73.3786 68.2551 73.2964 68.2584 73.2398C68.2604 73.1839 68.2867 73.132 68.3366 73.0869C68.3885 73.0397 68.5421 72.9602 68.796 72.847C69.0473 72.7332 69.211 72.6537 69.2811 72.6072C69.403 72.5324 69.5236 72.4408 69.6422 72.333C70.0215 71.9921 70.229 71.6013 70.2674 71.1608C70.3051 70.7201 70.1859 70.3449 69.9063 70.0336C69.7594 69.8713 69.5816 69.7507 69.3727 69.6678C69.1632 69.5877 68.9382 69.5546 68.6997 69.5728C68.4605 69.5876 68.0577 69.6658 67.4904 69.8046C66.7958 69.9757 66.3175 70.0411 66.0568 70.0026C65.8782 69.9777 65.732 69.9023 65.6202 69.7776C65.4727 69.6153 65.4093 69.4091 65.4329 69.1572C65.4545 68.9065 65.571 68.6856 65.7792 68.4976C65.9645 68.3312 66.1854 68.2187 66.4441 68.1567C66.7008 68.0947 66.9508 68.1028 67.1899 68.1796C67.4277 68.2557 67.6878 68.4147 67.9687 68.6539L68.0799 68.5535L66.8052 67.1367ZM73.8488 67.514L73.7181 67.6649C73.6332 67.7626 73.5268 67.834 73.4015 67.8798C73.3078 67.9121 73.2263 67.9175 73.1576 67.894C73.0687 67.8616 72.9164 67.7538 72.7056 67.5713L70.0215 65.2362C69.7716 65.0199 69.6375 64.8576 69.6159 64.7491C69.5836 64.584 69.6422 64.4176 69.7877 64.2479L69.9191 64.0983L69.8046 63.9993L68.2551 65.7805L68.3703 65.8796L68.4983 65.732C68.5832 65.6337 68.6896 65.5602 68.8163 65.5131C68.9079 65.4828 68.9887 65.4787 69.0574 65.5016C69.1477 65.5346 69.2993 65.6418 69.5095 65.8243L72.1949 68.1594C72.4442 68.3763 72.5809 68.5387 72.6025 68.6438C72.6355 68.8088 72.5775 68.9766 72.4287 69.1484L72.3007 69.2959L72.4125 69.3936L73.962 67.6117L73.8488 67.514ZM73.0047 59.2214L70.6231 63.0345L71.6835 63.7743L71.7644 63.6442C71.5636 63.4947 71.4282 63.3404 71.3561 63.1773C71.2861 63.0157 71.2645 62.8607 71.2968 62.7132C71.3218 62.6013 71.4026 62.4369 71.5387 62.2193L71.8897 61.6575L75.4597 63.8874C75.7204 64.0505 75.8726 64.1825 75.9131 64.2775C75.9818 64.4345 75.9548 64.613 75.8309 64.8097L75.7271 64.9755L75.8544 65.055L77.092 63.0736L76.9647 62.9941L76.8643 63.1571C76.7505 63.3377 76.6178 63.4428 76.4675 63.4697C76.3577 63.4859 76.1583 63.4064 75.8726 63.2272L72.3027 60.9959L72.715 60.3384C72.8342 60.1443 72.9642 60.0096 73.101 59.9308C73.2371 59.8526 73.3954 59.8189 73.5713 59.8311C73.6831 59.8385 73.8414 59.8903 74.0503 59.986L74.1318 59.8546L73.0047 59.2214ZM74.8978 54.725L75.5856 52.931L75.7271 52.9849L75.6901 53.0826C75.6638 53.1499 75.6564 53.2564 75.6658 53.4053C75.6759 53.5535 75.7143 53.7003 75.783 53.8459C75.8524 53.9914 75.9798 54.1868 76.1684 54.4327L77.6438 56.4221L78.9346 56.9173C79.2513 57.0392 79.4608 57.079 79.5672 57.0386C79.7101 56.9833 79.8205 56.8519 79.9 56.6458L79.964 56.4787L80.1049 56.5326L79.2668 58.7161L79.126 58.6622L79.196 58.4803C79.2789 58.2627 79.2721 58.0821 79.1751 57.9413C79.1165 57.8544 78.942 57.7567 78.655 57.6462L77.4363 57.1794L74.7415 57.7628C74.4262 57.8315 74.2248 57.8847 74.1378 57.9198C74.0503 57.9555 73.9277 58.0491 73.768 58.202C73.7242 58.2418 73.6831 58.3112 73.6454 58.4068L73.5046 58.3536L74.3487 56.154L74.4895 56.2079L74.4464 56.3217C74.3999 56.441 74.3858 56.5609 74.4026 56.6808C74.4201 56.8034 74.4861 56.8856 74.5973 56.9281C74.6869 56.9624 74.8803 56.9496 75.1774 56.8856L77.2477 56.4484L76.0498 54.8315C75.8686 54.589 75.7224 54.4441 75.6065 54.3996C75.5351 54.3727 75.465 54.366 75.395 54.3828C75.3249 54.3976 75.2616 54.434 75.2036 54.4892C75.1464 54.5458 75.0918 54.6415 75.0386 54.7796L74.8978 54.725ZM68.6344 26.9738C68.5111 27.1092 68.4457 27.4946 68.5528 27.6596C69.019 28.3778 70.1872 28.0861 70.9445 27.5296L71.5064 27.0984L71.7064 27.4036C71.8924 27.6906 72.3478 27.9884 72.5708 27.8435L72.6079 27.8193L72.6813 27.7715C72.8538 27.4629 72.6799 26.957 72.4273 26.5676L72.3067 26.3816L72.6685 25.8144C73.0154 26.0084 73.5551 26.5197 73.962 26.2543C74.253 26.067 74.1156 25.5166 73.902 25.1871L73.6137 24.7432C73.4709 24.5222 72.9932 24.1442 72.7864 24.279C72.5809 24.4124 72.4947 24.8058 72.5816 24.9392C72.7298 25.1662 72.9858 25.268 73.1145 25.4357C72.8504 25.5786 72.6389 25.4701 72.4307 25.3535L72.3546 25.4014L72.207 25.4977L72.1322 25.5455C72.0851 25.6318 72.0723 25.6911 71.9591 25.7645C71.9065 25.7975 71.8513 25.7618 71.8122 25.7018L71.6445 25.4418L70.7794 24.4797C70.6123 24.5229 70.6844 24.4306 70.5645 24.5094C70.4432 24.5889 70.4931 25.0739 70.543 25.2397C70.6137 25.4728 70.7848 25.8238 70.9377 26.0582C71.0199 26.1862 71.0031 26.2192 71.0684 26.3412L70.6918 26.6518L70.5739 26.7158C70.3051 26.8909 69.6907 26.926 69.4435 26.9226L69.3707 26.7097C69.4044 26.6134 69.4583 26.4564 69.3774 26.3331C69.3444 26.2812 69.2791 26.292 69.2191 26.3318L69.1827 26.356C68.9833 26.484 68.7832 26.8094 68.6344 26.9738ZM74.852 24.6232L74.5414 24.1415C74.73 24.0459 74.5704 24.0499 74.7617 24.1564L74.8351 24.1085L74.8735 24.0843L74.9463 24.0364L75.302 24.0216L75.3761 23.9684L75.5614 23.8471L75.6362 23.7993L75.7339 23.6275L75.8477 23.5574C75.8578 23.4645 76.6589 22.9403 76.6999 23.0043L76.8475 22.9073C76.9 22.9599 76.9997 23.0744 77.0577 23.1229C77.1587 23.2058 77.2167 23.1525 77.2834 23.2563L77.501 23.5898C77.5805 23.7117 77.5172 23.7771 77.4127 23.8579C77.1197 23.5763 76.8879 23.6073 76.5322 23.639L76.4581 23.6875L76.3462 23.7595C76.231 23.965 76.1084 24.3888 75.9326 24.502C75.8969 24.5256 75.2346 24.2702 75.0649 24.3807L75.0271 24.405C74.8937 24.4919 74.9766 24.5707 75.0602 24.6994C75.4031 24.7041 75.4752 24.789 75.781 24.9176C76.0404 25.0261 76.256 24.9325 76.4513 25.2195C76.5746 25.2255 76.7653 25.2943 76.9748 25.3145C77.1695 25.334 77.3029 25.2976 77.4915 25.2808L77.5677 25.2323L77.6782 25.1609L77.7523 25.1124C77.8385 24.9561 77.8776 24.9352 77.7698 24.7331L78.0406 24.5026C78.4826 24.5094 78.5331 24.8334 79.068 24.7856L79.1414 24.7371L79.2162 24.6893C79.2007 24.5222 79.2102 24.3666 79.099 24.1853C79.1462 24.0762 79.1334 23.9522 79.2263 23.8923L79.3368 23.8202C79.7498 23.5514 79.6973 23.3863 79.6663 23.0279C79.5369 22.9046 79.1738 22.6621 79.0195 22.7625C78.8201 22.8918 78.8107 23.003 78.585 23.1492L78.4731 23.2219C78.2319 23.3782 77.7381 22.6533 77.3541 22.6318C77.344 22.524 77.2982 22.4047 77.4195 22.3266L77.7145 22.1339L77.7887 22.0861C77.9322 21.8287 78.079 21.5747 77.8729 21.2406L77.9113 21.122C77.7759 21.0499 77.5919 20.9495 77.4336 21.0519C77.2591 21.1658 77.1527 21.2729 77.0146 21.4103C76.8596 21.5639 76.7424 21.5538 76.5686 21.6663L76.4574 21.7384C76.2897 21.8476 76.2479 21.789 76.1071 21.9183C76.0101 22.0086 76.0229 22.0719 75.8511 22.1844L75.5924 22.3522L75.0561 22.7456C74.7954 22.9518 74.5212 22.9417 74.2463 23.1202C74.1459 23.1869 74.1742 23.2731 74.0725 23.3392C74.0624 23.3459 73.9876 23.358 73.9371 23.3735C73.7781 23.2206 73.7316 23.292 73.5854 23.0751L73.6595 23.0272C73.832 23.1842 73.7963 23.0569 73.989 23.1303L74.3514 22.9599L75.6207 22.1534C75.7925 22.0652 75.8619 21.9405 75.9292 21.8179L76.0033 21.7694L76.3375 21.5532L76.4109 21.5047C76.6117 21.1456 76.5989 20.9253 76.7538 20.6511L76.7047 20.577C76.5564 20.3479 76.1839 20.4018 75.9717 20.4207L75.8969 20.4692L75.4516 20.7575L74.7193 21.25L74.6741 21.2628L74.5993 21.3106C74.5299 21.4366 74.4653 21.5565 74.3009 21.663L73.8933 21.9277C73.8017 21.9857 73.5382 22.2781 73.4891 22.3522C73.3624 22.5435 73.4904 22.625 73.417 22.8164C73.167 22.4937 72.5095 22.1494 72.5061 22.1433L72.4576 22.0692L72.4381 21.8725L72.3876 21.7984C72.2306 21.5559 71.2173 21.5572 70.9297 21.7438L70.7073 21.888L70.6332 21.9365L70.456 22.4438C70.4965 22.5583 70.4796 22.5927 70.5618 22.72L70.6824 22.9053L70.7309 22.9787C70.9276 23.0899 71.0765 23.1539 71.3042 23.133L71.3797 23.0852L71.4909 23.0131L71.565 22.9653C71.6027 22.8959 71.6593 22.7456 71.7139 22.7099L71.8991 22.5893L71.9732 22.5408C72.0918 22.5307 72.4125 22.5678 72.4866 22.6823L72.6321 22.9046L73.8636 24.5269L74.571 25.65L75.0339 26.455C75.0716 26.5089 75.0958 26.5837 75.0366 26.6113L74.6398 26.8074C74.7853 27.0344 74.8924 27.0351 75.0548 27.1261C75.1127 27.285 75.1599 27.4515 75.2703 27.6185C75.4219 27.8543 75.6907 28.0302 75.9528 27.8604C76.2156 27.6906 75.9872 27.2763 75.9899 27.0055C75.9912 26.7825 75.9676 26.3392 75.8147 26.1061L75.5755 25.7355L74.852 24.6232ZM53.3251 12.2459C53.1142 12.4103 53.1257 12.5053 52.8582 12.5511C52.6554 12.7094 52.6231 12.634 52.3927 12.8556L52.2269 12.8017C52.2013 12.8408 51.9514 13.1325 51.9164 13.1426C51.8625 13.1581 51.7783 13.1177 51.686 13.1635C51.6307 13.1905 51.6044 13.237 51.5074 13.2875C51.048 13.5253 51.2366 13.4862 50.6895 13.5805L50.6357 13.7456L50.7482 13.8251L50.8283 13.8547C51.4185 14.0474 51.719 13.7591 52.1656 13.7705C52.5874 13.7827 52.4506 13.8109 52.7881 13.6385C53.0064 13.5266 53.1567 13.5246 53.3776 13.4424C53.9894 13.2167 53.9321 13.1797 54.4178 12.7707C54.7675 12.477 55.0329 12.2203 55.359 11.9057C55.4877 11.771 55.5786 11.4281 55.77 11.4907C55.84 11.5136 55.8239 11.8734 55.8414 11.9724L55.8137 12.0553C55.8367 12.1071 55.9983 13.0268 56.0172 13.1588C56.0576 13.4458 56.0603 13.4586 56.1519 13.7119C56.2166 13.8918 56.2813 14.0366 56.2874 14.23C56.3015 14.7083 56.4403 14.8761 56.7509 15.2015C56.8816 15.3389 57.4636 15.892 57.6503 15.9527C57.973 16.0591 58.3193 16.1164 58.516 15.9621C58.5551 15.5329 58.5005 15.5498 58.2579 15.2655C58.0727 15.0499 58.1212 14.9084 57.9251 14.641C57.5593 14.139 57.4636 13.9733 57.2642 13.3899C57.1086 12.9398 56.9766 12.4743 56.7637 12.0573C56.6357 11.8074 56.6714 11.6174 56.6323 11.3304C56.6161 11.2158 56.6027 11.0481 56.5744 10.9464C56.5124 10.724 56.4214 10.8392 56.4672 10.6203L57.143 10.7941L57.3484 10.8635C57.8544 11.0299 58.3199 11.0595 58.6137 10.7752L58.6413 10.6924C58.7754 10.2841 58.7457 9.94793 58.3341 9.81318L58.004 9.70539C57.7783 9.63061 57.748 9.7128 57.5223 9.6387L57.0251 9.47633L57.3168 8.74806L57.562 7.95713L57.8106 7.39863C57.8652 7.2329 57.7109 7.03685 57.5768 6.95533L57.273 6.91289C57.1868 7.04628 57.1073 7.13319 57.0426 7.32924L57.0291 7.37033C56.9294 7.67619 56.7704 7.74154 56.6889 7.99216L56.6067 8.23941L56.2463 9.17384C56.121 9.14554 56.0927 9.17047 55.9505 9.12399L55.9101 9.10984C55.6244 9.01619 55.4607 9.14622 55.3577 9.11321L55.3172 9.09973C55.1023 9.02832 55.105 8.93872 54.9312 8.88145C54.814 8.84238 54.3451 9.09165 54.2312 9.20079L54.2036 9.28365C54.112 9.56661 54.3734 9.90818 54.5384 10.0793L54.6213 10.1069L54.7042 10.1339C55.0235 10.239 55.1441 10.1413 55.4473 10.2403C55.3577 10.3319 55.4169 10.1932 55.3657 10.3508C55.3031 10.5401 55.0161 10.815 54.8995 10.9309C54.7062 11.1269 54.6132 11.2751 54.4327 11.5062C54.2299 11.7656 53.9867 11.6989 53.8425 11.8377C53.5966 12.0728 53.7104 12.1381 53.3251 12.2459ZM31.2154 11.9717L31.1609 11.8518C31.0497 11.6032 30.7034 11.8343 30.5478 11.552L30.9871 11.3553L31.0228 11.4348L31.1413 11.3816C31.2188 11.3472 31.2074 11.3371 31.2437 11.2879C31.3354 11.3452 31.4095 11.3378 31.4526 11.4334L31.4876 11.5129C31.4762 11.7076 31.5024 11.8761 31.3306 12.0149C31.3643 12.1098 31.4021 12.2709 31.3192 12.3086C31.2633 12.3335 31.2148 12.2897 31.1858 12.225C31.1501 12.1456 31.2781 12.1125 31.2154 11.9717ZM29.7778 12.186C29.8236 12.1125 29.868 12.0499 29.9812 11.9987C30.058 11.965 30.1436 12.0822 30.1907 12.1442C30.2918 12.3564 30.4575 12.5296 30.6448 12.5154C30.6866 12.7701 30.4124 12.7438 30.5101 12.9594L30.5276 12.9998L30.5633 13.0793L30.9231 13.3481C31.0524 13.3535 30.9096 13.4034 31.0612 13.3346L31.1804 13.2807C31.3987 13.1831 31.367 13.1022 31.5833 13.0039L31.7032 12.9506L31.8595 13.1655C31.7012 13.2861 31.3859 13.5725 31.2451 13.6351L31.2053 13.654C31.0612 13.7187 30.9978 13.7867 30.9224 13.877C30.917 14.0057 30.8671 13.8622 30.9345 14.0144L30.9709 14.0939C31.0342 14.2347 31.3987 14.2381 31.5354 14.1761L32.0939 13.9248C32.1546 14.0057 32.1748 13.9996 32.2233 14.1067L32.5278 14.7845C32.6531 14.7602 32.614 14.7939 32.705 14.7528C32.7602 14.7279 32.9273 14.075 32.9334 13.9794L32.8984 13.8999L32.86 13.8197L32.8754 13.5273L32.9529 13.4909L33.1119 13.4195C33.2231 13.3697 33.2467 13.2026 33.2628 13.113L33.1907 12.9533C33.0398 12.9432 32.7077 12.8961 32.5642 12.9466L32.3385 12.6657C32.4402 12.5376 32.4106 12.5222 32.509 12.3962L32.7474 12.2891L32.7562 12.1914C32.5797 11.965 32.1566 12.0411 32.0623 11.8303C32.0333 11.7656 32.2381 11.5224 32.2664 11.3459C32.2934 11.1754 32.2684 10.9955 32.2806 10.8217C32.6329 10.6533 33.4973 9.82666 33.7573 10.5886L33.9386 11.1296L34.2741 11.8437L34.3091 11.9226C34.305 11.9913 34.2855 12.1893 34.3145 12.256C34.464 12.5875 34.5435 12.4494 34.65 12.9129C34.6992 13.1285 34.7234 13.3508 34.7692 13.5853L34.6655 13.6776L34.5873 13.7153L34.3077 13.8399C34.2437 13.8702 34.1993 13.9181 34.2242 13.974C34.3482 14.2489 34.6722 14.3297 34.7147 14.4247L34.7322 14.4651L34.7679 14.5439C34.8844 14.6342 35.1741 14.7932 35.3284 14.7238L35.5278 14.6342L35.6087 14.5985C35.9354 14.1768 35.8923 13.9928 35.8579 13.437C35.8323 13.02 35.9159 12.6178 35.6902 12.1166L35.6194 11.9576C35.4699 11.6261 35.3931 11.3358 35.2866 11.005C35.158 10.6055 35.0589 10.4983 34.8743 10.0874L34.6237 9.52888C34.3973 9.02562 33.7647 9.11388 33.2608 9.3746L32.2866 9.87449C31.8049 10.1096 31.4876 10.4114 30.8772 10.6856L30.1752 11.0427C30.1483 10.8669 30.3309 10.462 30.4232 10.3151L30.3868 10.2349L30.471 9.86775L30.5411 9.83003L30.979 9.63331L31.0591 9.5976L31.4088 9.20146L31.4876 9.16508L31.687 9.0748C31.7834 9.03169 31.906 8.71033 31.8622 8.61264C31.7268 8.30948 31.5543 8.25356 31.3104 8.23806L31.2309 8.27377L30.9911 8.38089C30.7843 8.47453 30.8341 8.16463 30.6846 8.23133C30.6003 8.26973 30.6381 8.26973 30.5431 8.34249L30.5377 8.67462C30.4501 8.69214 30.4259 8.72044 30.376 8.60995L30.3585 8.5702C30.2601 8.35259 30.3383 8.31352 30.2406 8.09591L29.8458 7.21875L29.8101 7.13925C29.55 6.93579 29.3877 6.9459 29.0764 6.89335C28.8595 7.05908 28.9289 7.10018 28.7894 7.21403C28.8602 7.4148 28.8224 7.49968 28.9248 7.72874L29.1216 8.16732C29.2011 8.34451 29.2051 8.6113 29.1957 8.75749L29.2321 8.83699L29.3217 9.0364L29.3574 9.1159C29.3493 9.22235 29.3776 9.34698 29.2475 9.40492L28.809 9.60232L28.7295 9.63802C28.6621 9.72223 28.5604 9.79702 28.619 9.92704L28.6736 10.0463C28.7584 10.2369 29.3863 10.2484 29.4409 10.3724C29.5938 10.7085 29.416 12.157 29.1889 12.2594C29.1323 12.2843 29.0838 12.2412 29.0549 12.1759L29.0367 12.1361C28.9963 12.0438 28.9552 12.0283 28.8629 12.0701L28.784 12.1058C28.5583 12.2069 28.5988 12.9756 28.7355 13.2774C28.8999 13.6445 28.8676 14.0494 28.9828 14.3647L29.3311 15.2621L29.4638 15.5383L29.8431 16.5172C29.9644 16.8022 30.308 16.9255 30.4555 17.106L30.6145 17.0346C31.0699 16.8298 30.9527 16.2922 30.7438 15.826L30.0802 14.3506L29.6551 13.4391L29.2556 12.5168L29.3756 12.4629C29.5918 12.3652 29.5561 12.2917 29.7778 12.186ZM13.5428 24.5902L13.3973 24.4912L13.4195 24.2931L13.4943 24.182C13.6203 23.994 13.6863 24.0257 13.817 23.8606C13.9922 23.8539 14.2549 23.6174 14.5116 23.7885C14.7157 23.926 14.678 24.3335 14.6578 24.5323L14.6073 24.6057C14.5035 24.7613 14.5574 24.6859 14.4968 24.6926L13.6162 24.6401L13.5428 24.5902ZM12.7148 20.2186L12.7889 20.1074L13.2336 20.4058C13.4734 20.5662 13.6109 20.7461 13.7631 20.9131C14.0798 21.2608 13.9154 21.1092 13.8615 21.4716L13.6769 21.3477C13.4829 21.2177 13.5125 21.1301 13.3562 21.025C13.3077 20.9926 13.1292 20.9556 13.0463 20.9253L12.8071 21.0277L12.7613 21.1099C12.6892 21.2177 12.7492 21.2972 12.6987 21.444L13.2174 21.7923C13.2902 21.8408 13.3272 22.0995 13.4013 22.2376L13.4754 22.2882L13.6243 22.3865C13.7368 22.4627 13.7476 22.495 13.8217 22.5738C14.0434 22.5974 13.9349 22.6183 14.131 22.5125L14.2051 22.4014L14.4456 21.8671C14.837 22.1763 14.7878 22.5098 14.897 22.8123L15.2379 23.104C15.2493 23.1027 15.3362 23.1202 15.3793 23.1357L15.4797 22.9875C15.603 22.8015 15.5275 22.3926 15.6306 22.1218C15.8489 22.204 16.4067 22.2754 16.5583 22.0995L17.1916 21.3443L17.3034 21.1483C17.5305 20.8114 17.42 20.2974 17.3075 20.0225C16.9511 19.9706 17.0084 19.945 16.6762 20.0818L16.6021 20.0319C16.497 19.9619 16.2929 19.9322 16.243 20.0063C16.1527 20.1411 16.5044 20.4099 16.4633 20.7993L16.4135 20.8734L16.2706 21.1557L16.0827 21.3477C15.7492 21.2379 15.6091 21.3544 15.1631 21.0553L15.1253 21.031C14.9354 20.9024 15.1227 20.1903 15.2406 19.9787C15.0964 19.8635 15.1826 19.8857 15.0425 19.7921C14.839 19.6553 14.3135 19.8123 14.0663 19.7274L13.9908 19.8386L14.3324 20.2017L14.298 20.2603L14.1512 20.1613L13.5799 19.6533L13.4957 19.6142C13.3973 19.6041 13.3373 19.6149 13.2235 19.5395C13.1433 19.4842 13.2733 19.2255 13.3367 19.1305C13.3818 19.0638 13.3751 18.7263 13.2767 18.6603C13.1177 18.5538 13.0463 18.5687 12.8927 18.5107L12.5248 18.9614L12.1388 19.4539C12.1119 19.5071 12.1772 19.6634 12.1968 19.7092L12.1462 19.7833L11.9711 20.1471L11.934 20.1788L11.6288 20.5655C11.519 20.6881 11.5682 20.7003 11.488 20.8458C12.0236 21.2055 12.347 20.7656 12.7148 20.2186ZM11.9859 23.8673C11.9926 23.7286 12.0007 23.6841 12.1105 23.5217L12.3692 23.6955C12.5518 23.8182 12.3254 24.3221 12.2069 24.4993C12.159 24.5714 12.1738 24.5734 12.1685 24.6354L11.9226 24.5215L11.6915 24.2197C11.8141 24.1483 11.7157 24.2689 11.8114 24.1274L11.936 23.9414L11.9859 23.8673ZM14.3701 25.1993C14.4624 25.4249 14.4739 25.6735 14.5918 25.9599C14.676 26.1627 14.8565 26.5581 14.7124 26.7724C14.5655 26.992 14.1195 26.9536 13.9073 26.9307L13.8325 26.8815L13.6472 26.7575L13.5785 26.7036L13.2012 26.1418L12.9196 25.9996L12.5026 25.7382L11.3351 24.8368L10.5233 24.2844L10.4471 24.2412L10.1777 24.1591L10.2518 24.0479C10.4013 23.8262 10.4626 23.8182 10.6607 23.8384L10.7355 23.8889L10.7725 23.9138C10.8514 23.967 10.9753 23.9536 11.0272 23.8687L11.3432 23.2219L11.391 23.1472L11.4307 23.0117L11.1256 22.8076L10.8231 23.3567C10.7436 23.5062 10.3825 23.6571 10.2531 23.7265L10.2033 23.8L10.1608 23.8808L9.89268 24.1833C9.71954 24.118 9.63263 24.1698 9.48509 24.0708L9.27153 23.9233L9.29982 23.7852L9.34496 23.709L9.56122 23.3163L9.96005 22.7227C10.0887 22.53 10.1285 22.2181 10.1467 22.0429L10.1958 21.9682L10.4444 21.5976L10.495 21.5235C10.7671 21.3773 10.7921 21.4076 11.0885 21.4386L11.1626 21.4892L11.5884 21.8152L12.2378 22.2094L12.4979 22.3838L12.572 22.4337C12.6886 22.6513 12.7721 22.7025 12.9452 22.9066C13.0679 23.0522 13.0389 23.2064 13.1507 23.4126L13.2619 23.488C13.3131 23.6767 13.369 23.7953 13.2969 24.0277C13.2619 24.1415 13.1399 24.6306 13.1345 24.6387C12.9937 24.8489 12.9183 24.8004 12.7371 25.0706L13.6634 25.6924C13.8399 25.4162 13.6546 25.1952 13.8278 24.9129L14.0865 24.9022L14.3701 25.1993ZM18.6023 25.299L18.5572 25.21L18.2574 25.171L18.2069 25.2484L17.9381 25.5489L17.8464 25.7045L17.7973 25.7793C17.7824 25.9215 17.8141 25.9861 17.709 26.1505C17.5588 26.0939 17.5352 26.1404 17.4004 26.0501L17.0299 25.8015C17.1087 25.7025 17.1283 25.6533 17.2401 25.7281L17.3156 25.778L17.389 25.8278L17.5264 25.8561L17.7238 25.5684L17.6349 25.4586L17.6874 25.3832L17.7373 25.3084L17.7858 25.235L17.7353 24.632L17.5413 24.4784C17.4065 24.3888 17.3816 24.4359 17.2327 24.3787L17.0825 24.6017C17.0622 24.7472 17.0097 25.0295 16.908 25.1824L16.8581 25.2558L16.8089 25.3306L16.7854 25.5287L16.7328 25.6028C16.6722 25.6938 16.6371 25.6897 16.5475 25.6392L15.8866 25.2639L15.7445 25.1541L15.9183 24.8947C15.9964 24.7789 16.1298 24.7256 16.2275 24.6731L16.6762 24.0055C16.8015 23.9381 16.8298 23.8761 16.9861 23.9448L18.0499 24.4413C18.1179 24.4737 18.281 24.7061 18.4433 24.8159L18.6663 24.9648C18.7384 25.0133 18.7391 24.9978 18.8031 25.0025L19.0018 25.0153L19.0995 24.8792C19.332 24.5343 19.0941 23.9084 18.7317 23.6659L18.3612 23.4166C18.1597 23.2812 18.2055 23.2044 18.0034 23.0697L17.6699 22.8453L17.5965 22.7955L17.3964 22.7732L17.3243 22.7207L16.9982 22.5691L16.8042 22.6958L16.7537 22.7679C16.6324 22.9491 16.4323 23.0569 16.2828 23.3122L15.8334 24.0843L15.5484 24.4851L15.4986 24.5592L15.4622 24.8563L15.4103 24.9298C15.3349 25.043 15.3032 25.0544 15.2244 25.1278L15.1725 25.3623L15.2493 25.4128L15.3598 25.4876L15.4339 25.5368L15.5882 25.8622L15.6677 25.9093L16.5785 26.7097L17.0023 26.965C17.2489 27.1308 17.3176 27.0243 17.5581 27.1773C17.6814 27.1267 17.8107 27.157 17.9179 27.0425L18.1536 26.771C18.153 26.6504 18.0917 26.5413 18.1536 26.449L18.3039 26.2267C18.5417 25.8709 18.4346 25.6311 18.4918 25.5462L18.5154 25.5085C18.5835 25.4095 18.566 25.3953 18.6023 25.299ZM21.0411 25.4303C21.0647 25.208 21.2177 24.5815 21.0075 24.44C20.8869 24.3598 20.2859 24.8206 20.1882 25.0194L20.0124 25.3832C19.8837 25.619 19.7652 25.5718 19.6311 25.9006C19.5603 26.0744 19.4357 26.3176 19.3178 26.4773L18.4979 27.5936L18.2358 28.0086L18.1867 28.0827L18.1112 28.4566L18.1873 28.5637L18.2587 28.6156C18.4629 28.7524 19.1912 28.5065 19.2754 28.3832L19.2989 28.3461C19.3906 28.21 19.2457 28.1858 19.3373 28.049L19.3879 27.9749C19.5267 27.7674 19.813 27.2285 19.8965 27.1348L20.3674 26.5891L20.4193 26.5177L20.4422 26.3196L20.4941 26.2462L20.992 25.5044L21.0411 25.4303ZM44.0003 1.00517C20.3472 1.00517 1.16484 20.1869 1.16484 43.8407C1.16484 67.4944 20.3472 86.6755 44.0003 86.6755C67.6541 86.6755 86.8372 67.4944 86.8372 43.8407C86.8372 20.1869 67.6541 1.00517 44.0003 1.00517ZM44.0003 1.96048C20.8741 1.96048 2.11948 20.7151 2.11948 43.8407C2.11948 66.9663 20.8741 85.7209 44.0003 85.7209C67.1266 85.7209 85.8819 66.9663 85.8819 43.8407C85.8819 20.7151 67.1266 1.96048 44.0003 1.96048ZM44.0003 15.9735C59.3877 15.9735 71.8681 28.4519 71.8681 43.8407C71.8681 59.2288 59.3877 71.7078 44.0003 71.7078C28.6136 71.7078 16.1325 59.2288 16.1325 43.8407C16.1325 28.4519 28.6136 15.9735 44.0003 15.9735Z" fill="#006171"/>
</svg>
